<svg xmlns="http://www.w3.org/2000/svg" viewBox="0 0 162.79 95.3"><defs><style>.cls-1{fill:#ff7e1d;}.cls-2{fill:#fff;}.cls-3{fill:#d8691e;stroke:#d8691e;stroke-miterlimit:10;stroke-width:3px;}</style></defs><g id="Calque_2" data-name="Calque 2"><g id="cercles_orange" data-name="cercles orange"><path d="M89.29,71.22a79,79,0,0,1-43,22.71,4.39,4.39,0,0,1,.84.56c.32.26.62.54.92.81H162.79V71.22Z"/><circle class="cls-1" cx="47.65" cy="47.65" r="47.65"/><path class="cls-2" d="M46.83,90.81a4.69,4.69,0,0,1-3.54-1.28A4.92,4.92,0,0,1,42,86h2a3.27,3.27,0,0,0,.74,2.28,2.62,2.62,0,0,0,2.06.82,2.5,2.5,0,0,0,2-.81,3.39,3.39,0,0,0,.7-2.29V76.68h2V86a4.89,4.89,0,0,1-1.26,3.59A4.76,4.76,0,0,1,46.83,90.81ZM46,78.55V76.68h4.57v1.87Z"/><path class="cls-2" d="M57.33,90.81A3.73,3.73,0,0,1,54.81,90a2.83,2.83,0,0,1-.89-2.22,2.92,2.92,0,0,1,1.23-2.53,5.89,5.89,0,0,1,3.48-.89,10.34,10.34,0,0,1,1.66.12,5.73,5.73,0,0,1,1.3.34l-.43,1.41a6.53,6.53,0,0,0-1.29-.17c-.41,0-.84,0-1.28,0-1.81,0-2.71.55-2.71,1.65a1.28,1.28,0,0,0,.47,1.06,2.05,2.05,0,0,0,1.32.37,3.57,3.57,0,0,0,1.62-.33,2.43,2.43,0,0,0,1-.85,2.07,2.07,0,0,0,.32-1.07V85.75l.61,2.67h-.82l.33-.32a2.56,2.56,0,0,1-.42,1.51,2.53,2.53,0,0,1-1.17.9A4.86,4.86,0,0,1,57.33,90.81Zm3.67-.1-.13-3.08-.28-.86V84.08a1.71,1.71,0,0,0-.73-1.53A4.24,4.24,0,0,0,57.69,82L55.19,82l.2-1.84,2.1,0a5.85,5.85,0,0,1,3.83,1.11,3.89,3.89,0,0,1,1.25,3.13v4.34l1.77.22v1.67Z"/><path class="cls-2" d="M69.26,90.62,65.54,80.21h2.21l2.8,8.64h.18l2.79-8.64h2.22L72,90.62Z"/><path class="cls-2" d="M80.88,90.81A3.73,3.73,0,0,1,78.36,90a2.83,2.83,0,0,1-.89-2.22,2.92,2.92,0,0,1,1.23-2.53,5.89,5.89,0,0,1,3.48-.89,10.25,10.25,0,0,1,1.66.12,5.73,5.73,0,0,1,1.3.34l-.43,1.41a6.53,6.53,0,0,0-1.28-.17q-.63,0-1.29,0c-1.81,0-2.71.55-2.71,1.65a1.28,1.28,0,0,0,.47,1.06,2.05,2.05,0,0,0,1.32.37,3.54,3.54,0,0,0,1.62-.33,2.43,2.43,0,0,0,1-.85,2.07,2.07,0,0,0,.32-1.07V85.75l.61,2.67h-.82l.33-.32a2.56,2.56,0,0,1-.42,1.51,2.53,2.53,0,0,1-1.17.9A4.83,4.83,0,0,1,80.88,90.81Zm3.67-.1-.13-3.08-.28-.86V84.08a1.71,1.71,0,0,0-.73-1.53A4.24,4.24,0,0,0,81.24,82L78.75,82l.19-1.84,2.1,0a5.85,5.85,0,0,1,3.83,1.11,3.89,3.89,0,0,1,1.25,3.13v4.34l1.77.22v1.67Z"/><path class="cls-2" d="M95.64,90.81q-6.49,0-6.49-7.18a7.73,7.73,0,0,1,1.64-5.28,5.83,5.83,0,0,1,4.62-1.86,6.43,6.43,0,0,1,2.51.45,3.23,3.23,0,0,1,1.56,1.3L98,79.68a3.19,3.19,0,0,0-1.13-1,3.08,3.08,0,0,0-1.47-.36,3.77,3.77,0,0,0-3,1.37,5.86,5.86,0,0,0-1.14,3.87C91.25,87.18,92.82,89,96,89a7.11,7.11,0,0,0,2.8-.59l.46,1.73A9.91,9.91,0,0,1,95.64,90.81Z"/><path class="cls-2" d="M101.73,90.62V75.9h2.08V90.62Zm6.4,0V83.84a2.2,2.2,0,0,0-.49-1.52,1.78,1.78,0,0,0-1.38-.54c-1.63,0-2.45,1-2.45,3l-.61-2.67h.8a2.11,2.11,0,0,1,.77-1.57,3.89,3.89,0,0,1,4.53.49,4,4,0,0,1,.91,2.82v6.78Z"/><path class="cls-2" d="M112.64,90.62V88.79h7v1.83ZM113,82V80.21h3.48L116.7,82ZM115,90.62V80.21h1.68l.4,3v7.42ZM117,86.14l-.61-3.26h.8C117.35,81,118.31,80,120.1,80a2.79,2.79,0,0,1,2.33.92,4.82,4.82,0,0,1,.73,3H121.1a3,3,0,0,0-.34-1.63,1.22,1.22,0,0,0-1.09-.51,2.13,2.13,0,0,0-2,1.14A6.46,6.46,0,0,0,117,86.14Z"/><path class="cls-2" d="M125.2,90.62V88.79h4.16v1.83Zm.59-8.58V80.21h5.46V82Zm4.35-3.47a1.47,1.47,0,0,1-1.46-1.46,1.46,1.46,0,1,1,1.46,1.46Zm-1,12.05V80.8h2.08v9.82Zm1.88,0V88.79h3.39v1.83Z"/><path class="cls-2" d="M140.49,90.81c-.78,0-1.46,0-2-.07a10.81,10.81,0,0,1-1.53-.22l.23-1.89c.69.11,1.3.19,1.82.24s1,.08,1.5.08a6.3,6.3,0,0,0,2.29-.31,1,1,0,0,0,.71-1,.89.89,0,0,0-.25-.7,1.78,1.78,0,0,0-.77-.36L140.08,86a5.94,5.94,0,0,1-2.26-1,2.08,2.08,0,0,1-.73-1.75,2.66,2.66,0,0,1,1.31-2.48,8.82,8.82,0,0,1,4.23-.76c.5,0,1,0,1.41,0s.88.08,1.34.15L145.16,82c-.53,0-1-.09-1.4-.11l-1.19,0a7.7,7.7,0,0,0-2.53.3,1,1,0,0,0-.79,1,.7.7,0,0,0,.33.65,3.27,3.27,0,0,0,1,.37l1.92.47a5.73,5.73,0,0,1,2.4,1,2.39,2.39,0,0,1,.76,1.91,2.67,2.67,0,0,1-1.22,2.44A7.73,7.73,0,0,1,140.49,90.81Z"/><path class="cls-2" d="M147.87,82V80.21h9.42V82Zm2.61,3.67V77.07h2.08v8.64Zm4.47,5.1a4.92,4.92,0,0,1-3.42-1,4.12,4.12,0,0,1-1.05-3.14V84.92h2.08v1.67a2.35,2.35,0,0,0,.6,1.8,2.92,2.92,0,0,0,2,.56,9.61,9.61,0,0,0,1-.06c.37,0,.79-.08,1.26-.14l.23,1.83c-.46.08-.9.13-1.34.17S155.45,90.81,155,90.81Z"/></g><g id="chevrons"><path d="M13.45,39.18l32.94-17v4.9L18.63,41v.14L46.39,55.08V60L13.45,43Z"/><path d="M82.07,56.08l-32.93,17v-4.9L76.89,54.24V54.1L49.14,40.18V35.29l32.93,17Z"/><line class="cls-3" x1="47.81" y1="22.25" x2="47.67" y2="73.09"/></g></g></svg>